<?xml version="1.0" encoding="UTF-8" standalone="no"?>
<!DOCTYPE svg PUBLIC "-//W3C//DTD SVG 20010904//EN"
              "http://www.w3.org/TR/2001/REC-SVG-20010904/DTD/svg10.dtd">

<svg xmlns="http://www.w3.org/2000/svg"
     width="512px">
  <path id="Selection" fill="#2c355c"
        d="M 484.00,0.00
           C 483.21,4.42 480.75,13.33 478.39,17.00
             472.87,25.58 465.77,30.61 463.24,41.00
             462.15,45.46 461.61,57.37 455.00,57.37
             448.48,57.37 448.35,44.36 447.70,40.00
             445.97,28.35 439.06,16.25 427.00,13.16
             420.02,11.36 412.52,21.56 408.00,26.00
             406.35,27.61 402.23,32.27 399.60,30.83
             397.27,29.56 398.32,19.47 392.71,20.28
             386.00,21.24 383.70,37.16 377.12,33.92
             370.71,30.77 375.82,21.66 367.95,15.31
             359.36,8.40 355.52,22.02 346.00,20.62
             339.51,19.66 335.83,11.98 331.00,12.25
             326.65,12.49 321.46,20.74 318.87,23.98
             317.72,25.42 316.02,27.80 313.96,27.80
             311.18,27.80 309.77,23.97 308.60,22.00
             306.88,19.09 298.43,8.13 295.03,8.62
             292.94,8.92 291.32,11.41 290.24,13.00
             290.24,13.00 280.91,26.00 280.91,26.00
             279.97,27.90 278.92,31.98 276.73,32.66
             274.14,33.47 271.02,29.91 269.00,28.55
             269.00,28.55 262.00,24.58 262.00,24.58
             258.73,22.15 253.65,15.80 249.11,16.95
             245.02,17.98 245.30,22.79 244.47,26.00
             243.00,31.73 240.34,32.82 237.85,37.00
             237.85,37.00 235.36,42.96 235.36,42.96
             234.44,44.77 233.14,46.56 230.96,46.84
             227.70,47.25 223.61,43.05 221.00,41.34
             215.80,37.94 213.64,39.90 210.65,36.69
             205.99,31.68 207.58,21.03 197.00,13.81
             194.70,12.23 192.82,11.38 190.00,11.89
             186.67,12.50 183.67,14.69 181.37,17.06
             179.82,18.66 178.43,21.14 175.90,21.14
             170.04,21.14 164.47,7.51 157.21,12.61
             152.94,15.61 149.07,25.00 147.73,30.00
             147.05,32.57 146.42,37.62 143.74,38.83
             139.91,40.56 137.69,34.67 136.92,32.00
             134.82,24.71 132.93,11.93 123.00,11.33
             116.07,10.91 111.80,20.23 104.00,19.70
             94.71,19.05 92.28,8.23 83.00,10.31
             77.21,11.61 70.55,20.58 65.04,20.55
             59.29,20.52 56.91,9.60 49.00,10.50
             44.13,11.05 32.44,20.00 29.70,24.01
             27.05,27.91 27.17,33.50 22.98,31.83
             18.93,30.22 16.62,23.59 14.68,20.00
             8.64,8.86 4.23,11.84 1.00,0.00
             1.00,0.00 484.00,0.00 484.00,0.00 Z" />
</svg>
